<?xml version="1.0" standalone="no"?>
<!DOCTYPE svg PUBLIC "-//W3C//DTD SVG 20010904//EN"
 "http://www.w3.org/TR/2001/REC-SVG-20010904/DTD/svg10.dtd">
<svg version="1.0" xmlns="http://www.w3.org/2000/svg"
 width="700.000000pt" height="700.000000pt" viewBox="0 0 700.000000 700.000000"
 preserveAspectRatio="xMidYMid meet">
<metadata>
Created by potrace 1.14, written by Peter Selinger 2001-2017
</metadata>
<g transform="translate(0.000000,700.000000) scale(0.100000,-0.100000)"
fill="#000000" stroke="none">
<path d="M0 3500 l0 -2986 3500 0 3500 0 0 2986 0 2986 -3500 0 -3500 1 0
-2987z m1065 2790 l80 0 -2 -403 c-1 -221 -2 -409 -2 -417 -1 -13 -59 -15
-468 -15 -409 0 -468 -2 -468 -15 0 -13 59 -15 463 -16 316 -1 466 -4 470 -11
4 -6 7 -215 6 -465 l0 -453 -472 -3 c-410 -2 -472 -4 -472 -17 0 -18 -41 -17
505 -17 237 -1 432 -4 435 -9 3 -4 5 -213 5 -466 l-1 -458 -467 0 c-368 0
-470 -3 -476 -13 -4 -7 -8 615 -8 1382 l0 1396 271 2 c149 2 327 2 396 1 69
-1 161 -3 205 -3z m843 0 l202 0 -2 -417 -3 -418 -455 -1 c-250 0 -459 1 -465
3 -6 2 -10 149 -10 415 1 374 2 412 18 417 9 3 128 5 264 4 136 -1 339 -3 451
-3z m1042 0 l125 0 -1 -412 c-1 -227 -2 -415 -3 -418 -1 -4 -879 -5 -918 -1
-8 1 -11 108 -12 416 l0 415 217 2 c119 2 273 2 342 1 69 -1 181 -3 250 -3z
m923 0 l167 0 0 -418 0 -417 -459 0 c-253 0 -462 3 -465 6 -5 4 -10 702 -6
816 0 16 55 18 350 16 135 -1 320 -3 413 -3z m1043 0 l91 0 0 -407 c0 -225 -3
-413 -8 -418 -5 -7 -164 -10 -461 -9 -249 1 -456 2 -459 3 -3 0 -6 188 -6 416
l0 415 251 2 c138 2 307 2 376 1 69 -1 166 -3 216 -3z m842 0 l212 0 0 -418 0
-417 -462 0 -463 0 -3 410 c-1 225 -1 414 2 420 2 6 93 9 252 8 137 -1 345 -3
462 -3z m978 0 l70 0 0 -418 0 -417 -398 0 c-219 0 -399 2 -399 5 -1 3 -2 190
-3 415 l-1 410 205 5 c113 3 261 4 330 3 69 -1 157 -3 196 -3z m70 -1808 l0
-959 -40 3 c-23 1 -67 11 -98 21 -74 25 -133 22 -223 -10 -22 -7 -67 -13 -100
-12 -57 1 -66 5 -200 90 l-140 89 0 375 0 376 375 2 c206 1 385 2 398 2 13 1
22 7 22 16 0 13 -51 15 -398 15 l-397 0 0 467 0 466 393 0 c216 0 395 4 398 9
3 4 6 8 8 8 1 0 2 -431 2 -958z m-4708 939 c9 -1 12 -44 12 -181 l0 -179 -35
-10 c-89 -24 -179 -103 -217 -189 -29 -64 -32 -166 -9 -235 l18 -52 -29 -43
-29 -42 -317 2 -317 3 0 460 0 460 40 5 c32 4 833 5 883 1z m973 -1 c1 -3 2
-213 3 -467 l1 -463 -257 0 -257 0 -46 47 c-28 28 -44 52 -40 61 47 122 20
270 -65 360 -59 64 -153 104 -245 107 -19 0 -20 8 -22 177 -2 175 -2 177 20
180 37 5 907 3 908 -2z m969 -462 l0 -468 -465 0 -465 0 -1 48 c0 48 0 735 1
829 0 46 3 52 23 55 12 2 221 3 464 3 l443 0 0 -467z m966 11 c1 -250 -1 -460
-4 -466 -3 -10 -106 -13 -466 -13 l-463 0 0 463 c0 254 3 464 8 467 4 3 213 4
466 4 l458 -1 1 -454z m962 -13 l2 -466 -347 0 c-284 0 -357 3 -398 16 -54 16
-101 19 -152 10 l-33 -6 0 453 c0 250 2 456 4 458 2 2 211 3 463 3 l458 -1 3
-467z m-3727 -34 c136 -52 171 -242 63 -344 -32 -30 -102 -58 -131 -53 -10 2
-21 4 -25 4 -5 1 -7 93 -7 204 l1 204 37 -3 c20 -1 48 -7 62 -12z m-131 -197
l0 -195 -40 20 c-108 55 -141 201 -67 303 21 30 73 67 95 67 9 0 12 -46 12
-195z m-330 -272 c0 -3 -61 -93 -215 -316 -28 -39 -119 -172 -203 -294 -84
-122 -160 -231 -170 -243 -16 -20 -17 1 -16 407 1 235 2 433 3 439 1 8 88 11
301 11 165 0 300 -2 300 -4z m228 -17 c26 -13 59 -26 75 -30 l27 -6 0 -438 0
-437 -400 -1 c-220 0 -400 4 -400 9 0 8 56 91 290 427 69 99 175 252 235 340
61 88 114 160 118 160 4 0 29 -11 55 -24z m735 -316 l333 -335 -2 -125 c-1
-69 -2 -127 -3 -130 0 -3 -210 -5 -465 -5 l-465 -1 2 435 2 434 46 3 c51 4
119 26 151 48 12 9 32 15 45 14 16 -2 128 -108 356 -338z m332 98 c0 -131 -2
-238 -5 -238 -6 0 -470 466 -470 473 0 2 107 4 237 3 l238 -1 0 -237z m965
-227 l0 -467 -117 2 c-83 1 -131 7 -163 19 -56 21 -151 22 -207 2 l-42 -16
-198 200 c-109 110 -199 202 -201 203 -2 2 -4 448 -2 507 0 15 41 17 465 17
l465 -1 0 -466z m858 435 c-94 -87 -126 -224 -83 -350 9 -26 13 -52 8 -56 -4
-4 -129 -94 -278 -200 -148 -106 -303 -217 -343 -245 -49 -35 -81 -51 -100
-50 l-27 1 -1 466 -1 466 429 0 429 -1 -33 -31z m1072 -333 c0 -345 -1 -363
-18 -354 -28 15 -496 312 -505 320 -4 4 -3 20 3 35 12 31 15 127 6 170 -11 45
-51 118 -85 151 -17 17 -31 33 -31 36 0 4 142 7 315 7 l315 0 0 -365z m-749
279 c64 -25 118 -123 112 -202 -10 -128 -145 -220 -262 -179 l-31 11 0 183 c0
134 3 186 12 191 36 23 107 21 169 -4z m-214 -182 c0 -88 -3 -160 -7 -160 -14
0 -58 66 -68 101 -11 42 -7 110 9 141 10 19 59 78 65 78 1 0 1 -72 1 -160z
m466 -303 c45 -29 175 -111 289 -183 181 -112 208 -132 208 -154 l0 -26 -465
1 -465 0 0 165 0 166 83 0 c68 0 91 4 137 25 30 14 66 36 80 47 14 12 31 19
38 17 7 -2 49 -28 95 -58z m-487 -1 c19 -11 20 -20 21 -171 1 -88 -1 -167 -3
-175 -4 -14 -43 -16 -324 -16 -176 1 -320 2 -320 3 0 1 69 52 169 123 12 8
103 74 204 146 179 129 182 131 207 116 14 -9 34 -21 46 -26z m-1664 -356 c-2
-3 -50 -5 -108 -6 l-104 0 -1 28 c0 15 0 57 0 93 0 36 0 74 0 86 1 15 27 -6
109 -88 59 -59 106 -110 104 -113z m2707 6 c11 -14 6 -15 -27 -7 -4 1 8 21 12
21 2 0 9 -6 15 -14z m778 -46 c-1 -12 -5 -16 -10 -11 -5 5 -6 14 -3 20 11 16
15 13 13 -9z m-5758 -100 c-39 -55 -73 -100 -76 -100 -3 0 -17 8 -31 19 -98
69 -264 68 -367 -2 -157 -107 -195 -331 -80 -481 l27 -36 -113 -115 c-112
-114 -113 -115 -160 -115 -29 0 -49 -5 -52 -12 -2 -7 -4 202 -4 465 l0 477
463 0 464 0 -71 -100z m1061 -365 l0 -465 -467 0 -468 0 0 393 1 392 48 73 49
72 418 0 419 0 0 -465z m965 3 l0 -463 -467 -3 -467 -2 0 465 1 465 466 0 467
0 0 -462z m309 445 l22 -17 -32 -54 c-96 -159 -49 -359 108 -458 205 -130 488
13 506 256 4 54 8 68 28 83 l24 18 0 -371 0 -370 -465 0 -465 0 0 30 c0 17 -1
167 -1 335 0 168 1 364 1 435 l0 130 126 0 c102 0 129 -3 148 -17z m654 0 c-2
-9 -23 -31 -46 -48 -43 -29 -44 -30 -57 -10 -8 11 -27 32 -42 47 l-28 28 88 0
c78 0 88 -2 85 -17z m969 -448 l0 -465 -467 0 -467 0 1 382 1 382 114 83 115
83 351 0 352 0 0 -465z m963 0 l0 -465 -465 0 -465 0 0 465 0 465 465 0 465 0
0 -465z m184 432 c28 -19 66 -42 84 -53 37 -21 36 -19 17 -73 -23 -65 -14
-184 18 -248 64 -125 186 -195 325 -187 54 4 162 45 183 70 6 8 15 14 19 14 3
0 7 -95 6 -210 l0 -210 -400 2 -401 3 0 463 0 462 49 0 c39 0 60 -7 100 -33z
m-2419 -37 c98 -37 154 -171 112 -270 -16 -36 -67 -90 -103 -109 -70 -35 -169
-16 -229 44 -158 158 10 415 220 335z m2943 -16 c110 -64 134 -212 50 -307
-46 -52 -99 -75 -164 -71 -66 4 -102 22 -147 74 -73 86 -61 216 28 287 69 56
154 62 233 17z m-5536 -466 c0 -189 -1 -351 -1 -360 -1 -17 -24 -18 -333 -18
l-333 0 79 79 c70 71 82 78 103 70 43 -16 132 -18 188 -4 183 48 290 239 235
419 l-18 57 36 54 c21 29 39 51 41 49 2 -2 4 -158 3 -346z m-306 281 c76 -24
128 -105 127 -196 -1 -51 -6 -70 -30 -105 -87 -130 -281 -121 -352 15 -46 90
-21 202 58 259 62 44 118 52 197 27z m5970 -1159 c0 -406 -2 -487 -13 -478 -9
7 -132 11 -398 11 -275 0 -385 3 -387 11 -3 6 -4 216 -4 466 l1 455 394 1
c296 0 396 3 399 12 2 7 5 12 6 12 1 0 2 -220 2 -490z m-6556 460 c0 -10 -40
-50 -50 -50 -5 0 -8 14 -8 30 1 27 4 30 30 28 15 -1 28 -5 28 -8z m891 1 c1
-9 1 -904 0 -917 -1 -9 -127 -12 -465 -11 -255 0 -468 -3 -473 -6 -7 -4 -10
116 -9 337 l1 344 123 129 123 129 349 0 c193 0 350 -2 351 -5z m969 -462 l0
-467 -464 0 c-421 0 -465 2 -468 17 -3 13 -2 876 1 907 1 7 146 10 466 10
l465 0 0 -467z m960 460 c3 -4 5 -214 5 -466 l0 -458 -467 -1 -467 -1 0 454
c0 250 2 460 5 467 3 9 114 12 462 12 251 0 459 -3 462 -7z m968 -460 l2 -467
-465 0 -465 0 -1 154 c0 85 0 291 0 459 0 168 0 309 0 313 1 5 209 8 464 8
l462 -1 3 -466z m968 2 l-1 -466 -450 -2 c-247 -1 -457 0 -466 3 -14 4 -16 51
-16 467 l0 463 467 0 467 0 -1 -465z m964 -2 l0 -467 -465 1 -465 0 0 462 c0
254 2 464 5 466 2 3 212 5 465 5 l460 0 0 -467z m-4827 -922 c-1 -232 -2 -424
-2 -427 -1 -3 -214 -4 -474 -2 l-474 2 0 428 0 427 476 -3 476 -2 -2 -423z
m967 -2 l0 -425 -62 0 c-355 -2 -863 1 -867 6 -3 3 -6 194 -6 425 l0 419 468
0 467 0 0 -425z m965 -2 l0 -423 -62 0 c-35 0 -227 0 -428 0 -201 0 -383 0
-404 0 l-40 0 0 417 c0 229 2 420 5 425 3 4 213 7 467 6 l462 -3 0 -422z m965
2 l0 -425 -187 0 c-553 -1 -736 0 -740 3 -3 3 -5 540 -3 820 l0 27 465 0 465
0 0 -425z m966 3 l-1 -423 -466 -3 -466 -2 0 417 c0 230 2 421 4 426 2 4 212
7 467 7 l463 0 -1 -422z m964 -3 l0 -425 -465 0 -465 0 0 425 0 425 465 0 465
0 0 -425z m836 3 l0 -423 -90 -5 c-50 -3 -231 -4 -401 -2 l-310 3 1 422 c1
232 2 423 3 425 0 1 180 2 399 2 l398 0 0 -422z"/>
</g>
</svg>
